<svg width="30" height="30" viewBox="0 0 30 30" fill="none" xmlns="http://www.w3.org/2000/svg">
<g clip-path="url(#clip0_4089_492)">
<path d="M28.7 18.7C29.1 18.1 29.4 17.4 29.4 16.6C29.5 15.9 29.4 15.1 29.1 14.4C28.2 12.2 26.7 10.2 24.8 8.70002C22.9 7.20002 20.7 6.20002 18.3 5.80002L17.7 5.70002L18 5.10002C18.2 4.60002 18.3 4.10002 18.3 3.50002C18.2 3.00002 18 2.50002 17.7 2.00002C17.4 1.50002 17 1.20002 16.5 0.900024C15.5 0.400024 14.3 0.400024 13.4 0.900024C13 1.20002 12.6 1.50002 12.3 2.00002C12 2.50002 11.8 3.00002 11.8 3.50002C11.8 4.00002 11.9 4.60002 12.1 5.10002L12.4 5.70002L11.8 5.80002C9.3 6.20002 7.1 7.30002 5.2 8.80002C3.3 10.3 1.8 12.3 0.9 14.5C0.6 15.2 0.5 15.9 0.6 16.7C0.7 17.4 0.9 18.2 1.3 18.8C1.7 19.4 2.2 19.9 2.9 20.2L3 20.3L3.8 24.8C4 26.1 4.7 27.3 5.8 28.2C6.8 29.1 8.1 29.5 9.5 29.5H20.5C21.8 29.5 23.2 29 24.2 28.2C25.2 27.3 25.9 26.1 26.2 24.8L27 20.3L27.2 20.2C27.8 19.8 28.3 19.3 28.7 18.7ZM13.8 2.50002C14.5 1.80002 15.6 1.80002 16.3 2.50002C16.6 2.80002 16.8 3.30002 16.8 3.70002C16.8 4.10002 16.6 4.70002 16.2 5.00002C15.9 5.30002 15.4 5.50002 15 5.50002C14.5 5.50002 14.1 5.30002 13.8 5.00002C13.5 4.70002 13.3 4.20002 13.3 3.80002C13.3 3.40002 13.4 2.80002 13.8 2.50002ZM24.7 24.5C24.5 25.5 24 26.4 23.2 27C22.4 27.6 21.5 28 20.5 28H9.5C8.5 28 7.5 27.6 6.8 27C6 26.4 5.5 25.5 5.3 24.5L4.6 20.7L5.6 21.4C6.2 21.8 7 22 7.7 22C8.4 22 9.1 21.7 9.7 21.2L10 20.9L10.3 21.2C10.9 21.7 11.7 22 12.5 22C13.3 22 14.1 21.7 14.7 21.2L15 20.9L15.3 21.2C15.9 21.7 16.7 22 17.5 22C18.3 22 19.1 21.7 19.7 21.2L20 20.9L20.3 21.2C20.8 21.7 21.5 22 22.3 22C23 22 23.8 21.8 24.4 21.4L25.4 20.7L24.7 24.5ZM27.5 17.9L27.3 18.1C27.1 18.4 26.7 18.7 26.4 18.9C26 19.1 25.5 19.3 25 19.2C24.8 19.2 24.6 19.3 24.4 19.4C24.2 19.5 24 19.6 23.9 19.8C23.7 20 23.5 20.2 23.3 20.3C23.1 20.4 22.8 20.5 22.5 20.5C22.2 20.5 22 20.4 21.7 20.3C21.5 20.2 21.3 20 21.1 19.8C21 19.6 20.8 19.5 20.6 19.4C20.2 19.2 19.7 19.2 19.3 19.4C19.1 19.5 18.9 19.6 18.8 19.8C18.6 20 18.4 20.2 18.2 20.3C17.7 20.5 17.2 20.5 16.7 20.3C16.5 20.2 16.3 20 16.1 19.8C16 19.6 15.8 19.5 15.6 19.4C15.2 19.2 14.7 19.2 14.3 19.4C14.1 19.5 13.9 19.6 13.8 19.8C13.6 20 13.4 20.2 13.2 20.3C12.7 20.5 12.2 20.5 11.7 20.3C11.5 20.2 11.3 20 11.1 19.8C11 19.6 10.8 19.5 10.6 19.4C10.2 19.2 9.7 19.2 9.3 19.4C9.1 19.5 8.9 19.6 8.8 19.8C8.6 20 8.4 20.2 8.2 20.3C7.7 20.5 7.2 20.5 6.7 20.3C6.5 20.2 6.3 20 6.1 19.8C6 19.6 5.8 19.5 5.6 19.4C5.4 19.3 5.2 19.2 5 19.2C4.5 19.2 4 19.1 3.6 18.9C3.2 18.7 2.8 18.3 2.5 17.9C2.2 17.5 2.1 17 2 16.5C2 16 2 15.5 2.2 15C4.2 10.2 9.2 7.00002 15 7.00002C20.8 7.00002 25.8 10.1 27.8 15C28 15.5 28.1 16 28 16.5C27.9 17 27.8 17.5 27.5 17.9Z" fill="#949494"/>
</g>
<defs>
<clipPath id="clip0_4089_492">
<rect width="30" height="30" fill="white"/>
</clipPath>
</defs>
</svg>
